<?xml version="1.0" encoding="utf-8" standalone="no"?>
<!DOCTYPE svg PUBLIC "-//W3C//DTD SVG 1.1//EN"
  "http://www.w3.org/Graphics/SVG/1.1/DTD/svg11.dtd">
<svg xmlns:xlink="http://www.w3.org/1999/xlink" width="792pt" height="432pt" viewBox="0 0 792 432" xmlns="http://www.w3.org/2000/svg" version="1.1">
 <metadata>
  <rdf:RDF xmlns:dc="http://purl.org/dc/elements/1.1/" xmlns:cc="http://creativecommons.org/ns#" xmlns:rdf="http://www.w3.org/1999/02/22-rdf-syntax-ns#">
   <cc:Work>
    <dc:type rdf:resource="http://purl.org/dc/dcmitype/StillImage"/>
    <dc:format>image/svg+xml</dc:format>
    <dc:creator>
     <cc:Agent>
      <dc:title>Matplotlib v3.10.8, https://matplotlib.org/</dc:title>
     </cc:Agent>
    </dc:creator>
   </cc:Work>
  </rdf:RDF>
 </metadata>
 <defs>
  <style type="text/css">*{stroke-linejoin: round; stroke-linecap: butt}</style>
 </defs>
 <g id="figure_1">
  <g id="patch_1">
   <path d="M 0 432 
L 792 432 
L 792 0 
L 0 0 
z
" style="fill: #ffffff"/>
  </g>
  <g id="axes_1">
   <g id="patch_2">
    <path d="M 45.245409 365.8176 
L 781.2 365.8176 
L 781.2 26.115 
L 45.245409 26.115 
z
" style="fill: #ffffff"/>
   </g>
   <g id="matplotlib.axis_1">
    <g id="xtick_1">
     <g id="line2d_1">
      <path d="M 67.516003 365.8176 
L 67.516003 26.115 
" clip-path="url(#p40b0386814)" style="fill: none; stroke: #cccccc; stroke-width: 0.8; stroke-linecap: round"/>
     </g>
     <g id="line2d_2"/>
     <g id="text_1">
      <text style="font-size: 10px; font-family: 'WenQuanYi Micro Hei', 'DejaVu Sans', sans-serif; text-anchor: middle; fill: #262626" x="67.516003" y="376.916038" transform="rotate(-0 67.516003 376.916038)">2018</text>
     </g>
    </g>
    <g id="xtick_2">
     <g id="line2d_3">
      <path d="M 203.562306 365.8176 
L 203.562306 26.115 
" clip-path="url(#p40b0386814)" style="fill: none; stroke: #cccccc; stroke-width: 0.8; stroke-linecap: round"/>
     </g>
     <g id="line2d_4"/>
     <g id="text_2">
      <text style="font-size: 10px; font-family: 'WenQuanYi Micro Hei', 'DejaVu Sans', sans-serif; text-anchor: middle; fill: #262626" x="203.562306" y="376.916038" transform="rotate(-0 203.562306 376.916038)">2019</text>
     </g>
    </g>
    <g id="xtick_3">
     <g id="line2d_5">
      <path d="M 339.608609 365.8176 
L 339.608609 26.115 
" clip-path="url(#p40b0386814)" style="fill: none; stroke: #cccccc; stroke-width: 0.8; stroke-linecap: round"/>
     </g>
     <g id="line2d_6"/>
     <g id="text_3">
      <text style="font-size: 10px; font-family: 'WenQuanYi Micro Hei', 'DejaVu Sans', sans-serif; text-anchor: middle; fill: #262626" x="339.608609" y="376.916038" transform="rotate(-0 339.608609 376.916038)">2020</text>
     </g>
    </g>
    <g id="xtick_4">
     <g id="line2d_7">
      <path d="M 476.027642 365.8176 
L 476.027642 26.115 
" clip-path="url(#p40b0386814)" style="fill: none; stroke: #cccccc; stroke-width: 0.8; stroke-linecap: round"/>
     </g>
     <g id="line2d_8"/>
     <g id="text_4">
      <text style="font-size: 10px; font-family: 'WenQuanYi Micro Hei', 'DejaVu Sans', sans-serif; text-anchor: middle; fill: #262626" x="476.027642" y="376.916038" transform="rotate(-0 476.027642 376.916038)">2021</text>
     </g>
    </g>
    <g id="xtick_5">
     <g id="line2d_9">
      <path d="M 612.073945 365.8176 
L 612.073945 26.115 
" clip-path="url(#p40b0386814)" style="fill: none; stroke: #cccccc; stroke-width: 0.8; stroke-linecap: round"/>
     </g>
     <g id="line2d_10"/>
     <g id="text_5">
      <text style="font-size: 10px; font-family: 'WenQuanYi Micro Hei', 'DejaVu Sans', sans-serif; text-anchor: middle; fill: #262626" x="612.073945" y="376.916038" transform="rotate(-0 612.073945 376.916038)">2022</text>
     </g>
    </g>
    <g id="xtick_6">
     <g id="line2d_11">
      <path d="M 748.120248 365.8176 
L 748.120248 26.115 
" clip-path="url(#p40b0386814)" style="fill: none; stroke: #cccccc; stroke-width: 0.8; stroke-linecap: round"/>
     </g>
     <g id="line2d_12"/>
     <g id="text_6">
      <text style="font-size: 10px; font-family: 'WenQuanYi Micro Hei', 'DejaVu Sans', sans-serif; text-anchor: middle; fill: #262626" x="748.120248" y="376.916038" transform="rotate(-0 748.120248 376.916038)">2023</text>
     </g>
    </g>
    <g id="text_7">
     <text style="font-size: 10px; font-family: 'WenQuanYi Micro Hei', 'DejaVu Sans', sans-serif; text-anchor: middle; fill: #262626" x="413.222705" y="390.9176" transform="rotate(-0 413.222705 390.9176)">教学日期（月度）</text>
    </g>
   </g>
   <g id="matplotlib.axis_2">
    <g id="ytick_1">
     <g id="line2d_13">
      <path d="M 45.245409 346.129485 
L 781.2 346.129485 
" clip-path="url(#p40b0386814)" style="fill: none; stroke: #cccccc; stroke-width: 0.8; stroke-linecap: round"/>
     </g>
     <g id="line2d_14"/>
     <g id="text_8">
      <!-- $\mathdefault{10^{0}}$ -->
      <g style="fill: #262626" transform="translate(26.445409 349.928704)">
       <text>
        <tspan x="0" y="-0.173438" style="font-size: 10px; font-family: 'WenQuanYi Micro Hei'; fill: #262626">1</tspan>
        <tspan x="5.507812" y="-0.173438" style="font-size: 10px; font-family: 'WenQuanYi Micro Hei'; fill: #262626">0</tspan>
        <tspan x="11.109414" y="-3.925" style="font-size: 7px; font-family: 'WenQuanYi Micro Hei'; fill: #262626">0</tspan>
       </text>
      </g>
     </g>
    </g>
    <g id="ytick_2">
     <g id="line2d_15">
      <path d="M 45.245409 86.706072 
L 781.2 86.706072 
" clip-path="url(#p40b0386814)" style="fill: none; stroke: #cccccc; stroke-width: 0.8; stroke-linecap: round"/>
     </g>
     <g id="line2d_16"/>
     <g id="text_9">
      <!-- $\mathdefault{10^{1}}$ -->
      <g style="fill: #262626" transform="translate(26.445409 90.505291)">
       <text>
        <tspan x="0" y="-0.25" style="font-size: 10px; font-family: 'WenQuanYi Micro Hei'; fill: #262626">1</tspan>
        <tspan x="5.507812" y="-0.25" style="font-size: 10px; font-family: 'WenQuanYi Micro Hei'; fill: #262626">0</tspan>
        <tspan x="11.109414" y="-4.001563" style="font-size: 7px; font-family: 'WenQuanYi Micro Hei'; fill: #262626">1</tspan>
       </text>
      </g>
     </g>
    </g>
    <g id="ytick_3">
     <g id="line2d_17"/>
    </g>
    <g id="ytick_4">
     <g id="line2d_18"/>
    </g>
    <g id="ytick_5">
     <g id="line2d_19"/>
    </g>
    <g id="ytick_6">
     <g id="line2d_20"/>
    </g>
    <g id="ytick_7">
     <g id="line2d_21"/>
    </g>
    <g id="ytick_8">
     <g id="line2d_22"/>
    </g>
    <g id="ytick_9">
     <g id="line2d_23"/>
    </g>
    <g id="ytick_10">
     <g id="line2d_24"/>
    </g>
    <g id="ytick_11">
     <g id="line2d_25"/>
    </g>
    <g id="text_10">
     <text style="font-size: 10px; font-family: 'WenQuanYi Micro Hei', 'DejaVu Sans', sans-serif; text-anchor: middle; fill: #262626" x="20.042284" y="195.9663" transform="rotate(-90 20.042284 195.9663)">累计值（对数尺度，起点=1）</text>
    </g>
   </g>
   <g id="line2d_26">
    <path d="M 78.697891 346.491328 
L 89.13432 346.733674 
L 100.688937 348.583893 
L 111.870825 346.169967 
L 123.425442 345.75164 
L 134.60733 346.446411 
L 146.161948 344.344243 
L 157.716565 345.664719 
L 168.898453 342.85918 
L 180.453071 342.652574 
L 191.634959 342.049935 
L 203.189576 342.366471 
L 214.744194 340.480834 
L 225.180623 337.759085 
L 236.73524 337.424474 
L 247.917128 336.156217 
L 259.471746 334.02469 
L 270.653634 331.932721 
L 282.208251 330.783072 
L 293.762869 328.499919 
L 304.944757 327.77476 
L 316.499374 326.350475 
L 327.681262 326.347847 
L 339.23588 326.634345 
L 350.790497 326.091036 
L 361.599655 325.191187 
L 373.154273 326.578285 
L 384.336161 325.854636 
L 395.890778 326.369134 
L 407.072666 325.60338 
L 418.627284 324.751797 
L 430.181901 324.082485 
L 441.363789 325.804247 
L 452.918407 326.034254 
L 464.100295 325.518765 
L 475.654912 322.898939 
L 487.20953 321.654489 
L 497.645959 321.416148 
L 509.200576 320.09631 
L 520.382464 320.412488 
L 531.937082 321.100725 
L 543.118969 321.104341 
L 554.673587 319.682768 
L 566.228205 319.588558 
L 577.410092 320.690314 
L 588.96471 318.095745 
L 600.146598 315.279047 
L 611.701215 313.294993 
L 623.255833 311.961088 
L 633.692262 312.565912 
L 645.246879 313.821012 
L 656.428767 311.119774 
L 667.983385 309.1727 
L 679.165273 309.256439 
L 690.71989 310.063523 
L 702.274508 307.725088 
L 713.456396 308.18062 
L 725.011013 306.740001 
L 736.192901 307.020715 
L 747.747519 306.818141 
" clip-path="url(#p40b0386814)" style="fill: none; stroke: #0f766e; stroke-width: 2.4; stroke-linecap: round"/>
   </g>
   <g id="line2d_27">
    <path d="M 78.697891 341.26792 
L 89.13432 337.98463 
L 100.688937 331.589618 
L 111.870825 326.77829 
L 123.425442 321.280016 
L 134.60733 316.626111 
L 146.161948 310.860444 
L 157.716565 306.136001 
L 168.898453 300.894299 
L 180.453071 297.29176 
L 191.634959 293.558284 
L 203.189576 289.701244 
L 214.744194 284.883834 
L 225.180623 279.347019 
L 236.73524 272.139113 
L 247.917128 266.16589 
L 259.471746 262.587704 
L 270.653634 257.288221 
L 282.208251 250.889835 
L 293.762869 245.230341 
L 304.944757 240.423205 
L 316.499374 235.864933 
L 327.681262 230.458721 
L 339.23588 226.317672 
L 350.790497 221.317761 
L 361.599655 216.628322 
L 373.154273 211.710328 
L 384.336161 207.152311 
L 395.890778 202.818777 
L 407.072666 197.574101 
L 418.627284 192.020948 
L 430.181901 186.120014 
L 441.363789 181.64103 
L 452.918407 176.713211 
L 464.100295 171.559588 
L 475.654912 165.370088 
L 487.20953 160.952478 
L 497.645959 154.295196 
L 509.200576 148.764669 
L 520.382464 143.89378 
L 531.937082 138.828599 
L 543.118969 132.951175 
L 554.673587 128.571717 
L 566.228205 123.831142 
L 577.410092 120.872156 
L 588.96471 116.338059 
L 600.146598 109.39267 
L 611.701215 104.686623 
L 623.255833 99.300099 
L 633.692262 96.629759 
L 645.246879 90.061087 
L 656.428767 83.813865 
L 667.983385 78.343782 
L 679.165273 71.318003 
L 690.71989 66.882747 
L 702.274508 61.073898 
L 713.456396 56.411702 
L 725.011013 49.19524 
L 736.192901 44.767473 
L 747.747519 41.556027 
" clip-path="url(#p40b0386814)" style="fill: none; stroke: #b91c1c; stroke-width: 1.5; stroke-linecap: round"/>
   </g>
   <g id="line2d_28">
    <path d="M 78.697891 345.520239 
L 89.13432 344.837535 
L 100.688937 345.064098 
L 111.870825 342.858726 
L 123.425442 341.681182 
L 134.60733 339.482106 
L 146.161948 336.822021 
L 157.716565 339.121861 
L 168.898453 334.824768 
L 180.453071 333.04282 
L 191.634959 333.136388 
L 203.189576 331.838319 
L 214.744194 331.236732 
L 225.180623 330.484403 
L 236.73524 329.203766 
L 247.917128 328.000316 
L 259.471746 325.466677 
L 270.653634 321.802649 
L 282.208251 318.354772 
L 293.762869 317.478998 
L 304.944757 316.27688 
L 316.499374 313.384551 
L 327.681262 311.799765 
L 339.23588 312.38432 
L 350.790497 311.307743 
L 361.599655 311.127006 
L 373.154273 312.035448 
L 384.336161 310.148652 
L 395.890778 310.616049 
L 407.072666 309.247088 
L 418.627284 310.630775 
L 430.181901 312.127035 
L 441.363789 312.062735 
L 452.918407 310.480405 
L 464.100295 309.270301 
L 475.654912 304.204788 
L 487.20953 303.611961 
L 497.645959 303.549089 
L 509.200576 300.848959 
L 520.382464 298.054024 
L 531.937082 297.035455 
L 543.118969 299.063455 
L 554.673587 297.362441 
L 566.228205 296.206917 
L 577.410092 297.919019 
L 588.96471 294.095385 
L 600.146598 291.666152 
L 611.701215 289.182665 
L 623.255833 290.654104 
L 633.692262 290.545533 
L 645.246879 290.796822 
L 656.428767 288.000439 
L 667.983385 284.647408 
L 679.165273 278.570946 
L 690.71989 278.522015 
L 702.274508 274.488438 
L 713.456396 276.977903 
L 725.011013 277.254534 
L 736.192901 278.101617 
L 747.747519 276.653223 
" clip-path="url(#p40b0386814)" style="fill: none; stroke: #d97706; stroke-width: 1.5; stroke-linecap: round"/>
   </g>
   <g id="line2d_29">
    <path d="M 78.697891 346.378356 
L 89.13432 346.536052 
L 100.688937 348.300405 
L 111.870825 345.803801 
L 123.425442 345.273281 
L 134.60733 345.854746 
L 146.161948 343.669671 
L 157.716565 344.933165 
L 168.898453 342.045234 
L 180.453071 341.754315 
L 191.634959 341.095658 
L 203.189576 341.299267 
L 214.744194 339.330563 
L 225.180623 336.498891 
L 236.73524 336.052004 
L 247.917128 334.672397 
L 259.471746 332.485606 
L 270.653634 330.283098 
L 282.208251 329.077701 
L 293.762869 326.684197 
L 304.944757 325.875111 
L 316.499374 324.395214 
L 327.681262 324.308121 
L 339.23588 324.481722 
L 350.790497 323.826345 
L 361.599655 322.842699 
L 373.154273 324.201286 
L 384.336161 323.39371 
L 395.890778 323.85163 
L 407.072666 323.029939 
L 418.627284 322.150405 
L 430.181901 321.425107 
L 441.363789 323.118273 
L 452.918407 323.34828 
L 464.100295 322.748708 
L 475.654912 320.073858 
L 487.20953 318.773707 
L 497.645959 318.507263 
L 509.200576 317.10394 
L 520.382464 317.363641 
L 531.937082 317.966892 
L 543.118969 317.857895 
L 554.673587 316.352912 
L 566.228205 316.174305 
L 577.410092 317.162345 
L 588.96471 314.457729 
L 600.146598 311.5312 
L 611.701215 309.436501 
L 623.255833 307.991311 
L 633.692262 308.482919 
L 645.246879 309.709541 
L 656.428767 306.980807 
L 667.983385 304.950712 
L 679.165273 304.97809 
L 690.71989 305.615088 
L 702.274508 303.111247 
L 713.456396 303.510231 
L 725.011013 301.986218 
L 736.192901 302.15404 
L 747.747519 301.867151 
" clip-path="url(#p40b0386814)" style="fill: none; stroke: #2563eb; stroke-width: 1.5; stroke-linecap: round"/>
   </g>
   <g id="line2d_30">
    <path d="M 78.697891 346.849478 
L 89.13432 347.524959 
L 100.688937 348.553426 
L 111.870825 347.631977 
L 123.425442 346.799208 
L 134.60733 347.389403 
L 146.161948 346.181162 
L 157.716565 347.324529 
L 168.898453 346.418846 
L 180.453071 349.187902 
L 191.634959 347.503045 
L 203.189576 350.376573 
L 214.744194 349.291383 
L 225.180623 348.706262 
L 236.73524 345.513718 
L 247.917128 347.081546 
L 259.471746 347.274281 
L 270.653634 345.627165 
L 282.208251 343.883873 
L 293.762869 343.595286 
L 304.944757 342.376498 
L 316.499374 340.330555 
L 327.681262 339.028222 
L 339.23588 339.429578 
L 350.790497 340.329379 
L 361.599655 340.302728 
L 373.154273 341.79823 
L 384.336161 339.746591 
L 395.890778 340.342377 
L 407.072666 340.577121 
L 418.627284 339.511829 
L 430.181901 339.060761 
L 441.363789 342.361929 
L 452.918407 342.998652 
L 464.100295 344.594674 
L 475.654912 343.82686 
L 487.20953 343.316451 
L 497.645959 344.318445 
L 509.200576 342.573491 
L 520.382464 340.848765 
L 531.937082 339.448646 
L 543.118969 339.746132 
L 554.673587 339.84052 
L 566.228205 338.937513 
L 577.410092 339.316659 
L 588.96471 337.60048 
L 600.146598 335.201282 
L 611.701215 334.691452 
L 623.255833 332.974969 
L 633.692262 334.949142 
L 645.246879 335.763731 
L 656.428767 332.516638 
L 667.983385 331.624478 
L 679.165273 329.47638 
L 690.71989 329.266667 
L 702.274508 326.623724 
L 713.456396 326.738868 
L 725.011013 326.240015 
L 736.192901 328.237905 
L 747.747519 329.256487 
" clip-path="url(#p40b0386814)" style="fill: none; stroke: #7c3aed; stroke-width: 1.5; stroke-linecap: round"/>
   </g>
   <g id="line2d_31">
    <path d="M 78.697891 348.796289 
L 89.13432 346.910797 
L 100.688937 346.667432 
L 111.870825 342.512522 
L 123.425442 343.604687 
L 134.60733 347.751687 
L 146.161948 345.418236 
L 157.716565 343.564216 
L 168.898453 345.544021 
L 180.453071 348.061079 
L 191.634959 345.153265 
L 203.189576 342.424273 
L 214.744194 343.863494 
L 225.180623 344.28176 
L 236.73524 341.515162 
L 247.917128 338.613364 
L 259.471746 337.216424 
L 270.653634 341.246034 
L 282.208251 340.084443 
L 293.762869 344.270216 
L 304.944757 341.07236 
L 316.499374 340.759486 
L 327.681262 337.921221 
L 339.23588 333.323705 
L 350.790497 335.784862 
L 361.599655 333.17151 
L 373.154273 333.086291 
L 384.336161 332.090915 
L 395.890778 335.415277 
L 407.072666 331.403805 
L 418.627284 328.528915 
L 430.181901 323.384784 
L 441.363789 320.610589 
L 452.918407 317.883669 
L 464.100295 316.370807 
L 475.654912 317.709169 
L 487.20953 316.800196 
L 497.645959 318.99577 
L 509.200576 320.259148 
L 520.382464 318.720273 
L 531.937082 322.123739 
L 543.118969 322.659352 
L 554.673587 316.789466 
L 566.228205 314.872276 
L 577.410092 310.48401 
L 588.96471 305.58109 
L 600.146598 307.618325 
L 611.701215 307.058311 
L 623.255833 309.190295 
L 633.692262 311.369169 
L 645.246879 313.00281 
L 656.428767 309.306067 
L 667.983385 307.731299 
L 679.165273 306.688265 
L 690.71989 309.05972 
L 702.274508 311.947391 
L 713.456396 313.305287 
L 725.011013 314.317796 
L 736.192901 315.866324 
L 747.747519 310.172973 
" clip-path="url(#p40b0386814)" style="fill: none; stroke: #64748b; stroke-width: 1.5; stroke-linecap: round"/>
   </g>
   <g id="patch_3">
    <path d="M 45.245409 365.8176 
L 45.245409 26.115 
" style="fill: none; stroke: #cccccc; stroke-linejoin: miter; stroke-linecap: square"/>
   </g>
   <g id="patch_4">
    <path d="M 781.2 365.8176 
L 781.2 26.115 
" style="fill: none; stroke: #cccccc; stroke-linejoin: miter; stroke-linecap: square"/>
   </g>
   <g id="patch_5">
    <path d="M 45.245409 365.8176 
L 781.2 365.8176 
" style="fill: none; stroke: #cccccc; stroke-linejoin: miter; stroke-linecap: square"/>
   </g>
   <g id="patch_6">
    <path d="M 45.245409 26.115 
L 781.2 26.115 
" style="fill: none; stroke: #cccccc; stroke-linejoin: miter; stroke-linecap: square"/>
   </g>
   <g id="text_11">
    <text style="font-size: 9px; font-family: 'WenQuanYi Micro Hei', 'DejaVu Sans', sans-serif; text-anchor: start; fill: #475569" x="52.604955" y="420.170016" transform="rotate(-0 52.604955 420.170016)">固定种子生成；单边20bps；基准为不含股息的价格指数夹具；实验ID=TEACHING-V1</text>
   </g>
   <g id="text_12">
    <text style="font-size: 12px; font-family: 'WenQuanYi Micro Hei', 'DejaVu Sans', sans-serif; text-anchor: middle; fill: #262626" x="413.222705" y="20.115" transform="rotate(-0 413.222705 20.115)">教学夹具：正确管线与四个受控失败实验（非市场结果）</text>
   </g>
   <g id="legend_1">
    <g id="line2d_32">
     <path d="M 54.245409 39.213437 
L 64.245409 39.213437 
L 74.245409 39.213437 
" style="fill: none; stroke: #0f766e; stroke-width: 2.4; stroke-linecap: round"/>
    </g>
    <g id="text_13">
     <text style="font-size: 10px; font-family: 'WenQuanYi Micro Hei', 'DejaVu Sans', sans-serif; text-anchor: start; fill: #262626" x="82.245409" y="42.713437" transform="rotate(-0 82.245409 42.713437)">correct</text>
    </g>
    <g id="line2d_33">
     <path d="M 54.245409 54.215 
L 64.245409 54.215 
L 74.245409 54.215 
" style="fill: none; stroke: #b91c1c; stroke-width: 1.5; stroke-linecap: round"/>
    </g>
    <g id="text_14">
     <text style="font-size: 10px; font-family: 'WenQuanYi Micro Hei', 'DejaVu Sans', sans-serif; text-anchor: start; fill: #262626" x="82.245409" y="57.715" transform="rotate(-0 82.245409 57.715)">E1_future_data</text>
    </g>
    <g id="line2d_34">
     <path d="M 54.245409 69.216562 
L 64.245409 69.216562 
L 74.245409 69.216562 
" style="fill: none; stroke: #d97706; stroke-width: 1.5; stroke-linecap: round"/>
    </g>
    <g id="text_15">
     <text style="font-size: 10px; font-family: 'WenQuanYi Micro Hei', 'DejaVu Sans', sans-serif; text-anchor: start; fill: #262626" x="82.245409" y="72.716562" transform="rotate(-0 82.245409 72.716562)">E2_survivorship</text>
    </g>
    <g id="line2d_35">
     <path d="M 172.311034 39.213437 
L 182.311034 39.213437 
L 192.311034 39.213437 
" style="fill: none; stroke: #2563eb; stroke-width: 1.5; stroke-linecap: round"/>
    </g>
    <g id="text_16">
     <text style="font-size: 10px; font-family: 'WenQuanYi Micro Hei', 'DejaVu Sans', sans-serif; text-anchor: start; fill: #262626" x="200.311034" y="42.713437" transform="rotate(-0 200.311034 42.713437)">E3_ignore_costs</text>
    </g>
    <g id="line2d_36">
     <path d="M 172.311034 54.215 
L 182.311034 54.215 
L 192.311034 54.215 
" style="fill: none; stroke: #7c3aed; stroke-width: 1.5; stroke-linecap: round"/>
    </g>
    <g id="text_17">
     <text style="font-size: 10px; font-family: 'WenQuanYi Micro Hei', 'DejaVu Sans', sans-serif; text-anchor: start; fill: #262626" x="200.311034" y="57.715" transform="rotate(-0 200.311034 57.715)">E4_confirmation_reselection</text>
    </g>
    <g id="line2d_37">
     <path d="M 172.311034 69.216562 
L 182.311034 69.216562 
L 192.311034 69.216562 
" style="fill: none; stroke: #64748b; stroke-width: 1.5; stroke-linecap: round"/>
    </g>
    <g id="text_18">
     <text style="font-size: 10px; font-family: 'WenQuanYi Micro Hei', 'DejaVu Sans', sans-serif; text-anchor: start; fill: #262626" x="200.311034" y="72.716562" transform="rotate(-0 200.311034 72.716562)">benchmark</text>
    </g>
   </g>
  </g>
 </g>
 <defs>
  <clipPath id="p40b0386814">
   <rect x="45.245409" y="26.115" width="735.954591" height="339.7026"/>
  </clipPath>
 </defs>
</svg>
